<svg xmlns="http://www.w3.org/2000/svg" viewBox="0 0 215.74 224.51"><path fill="#010100" d="M72.44 224.4c0-.05 3.39-5.9 7.54-12.98 9.42-16.06 11.24-19.35 14.15-25.35 7.3-15.08 11.06-27.39 11.91-39 .3-4.02.08-7.78-.66-12.38-1.67-10.24-3.6-14.05-8.2-16.14-4.71-2.15-9.5-2.65-29.9-3.05-31.99-.63-35.3-1.19-46.8-7.96-5.14-3.04-7.81-4.97-10.35-7.51C7.48 97.4 6 95 5.47 92.46c-.8-3.78-2.64-10.13-4.15-14.16-1.88-4.97-1.75-8.7.37-13.04 1.06-2.14 1.61-2.88 3.92-5.19 4.5-4.55 8.06-6.66 21.82-12.86 4.13-1.85 7.57-3.46 7.65-3.51a126 126 0 00-.34-8.5c-.93-16.08-.37-18.73 4.92-23.97C44.9 6.05 49.6 3.61 56.03 2.8c3.02-.37 5.96-.13 10.85.95 6.9 1.49 7.65 1.56 14.29 1.54 7.04 0 9.84-.32 23.02-2.49 8.04-1.35 11.5-1.82 17.2-2.43 4.47-.48 21.27-.48 25.53 0 26.4 2.93 45.3 13.78 58.2 33.41 5.9 9 8.87 17.76 10.25 30.27.55 5.06.47 22.12-.14 26.33-2 14.23-7.88 25.72-20.4 39.92-8.12 9.21-9.78 11.14-13.22 15.38-18.95 23.23-27.94 41.38-30.2 60.98-.26 2.25-.39 5.96-.39 10.64v7.22h-39.29c-21.62 0-39.3-.05-39.3-.1z"/><g fill="#2d4512"><path d="M82.36 224.25c.08-.13 0-.27-.18-.27-.85-.02-4.24-.53-4.48-.66-.13-.1.03-.66.32-1.27a620.01 620.01 0 0111.33-19.5c6.9-11.43 11.16-20.45 14.57-30.69 3.97-11.9 5.48-20.88 5.22-30.93a56 56 0 00-1.93-14.13c-1.09-4.28-2.07-6.4-3.42-7.33-1.32-.9-2.11-2.35-1.85-3.38a7 7 0 011.59-2.1c2.46-2.4 5.92-3.83 19.97-8.38 5.48-1.77 9.37-3.41 10.03-4.2.32-.4.27-.46-.66-.46-2.4 0-11.51 2.14-23.05 5.45-10.82 3.07-19.65 4.98-28.25 6.03-25.83 3.2-48.1-.42-62.7-10.18-6.17-4.13-11.52-10.03-11.52-12.7 0-1.96 2.38-1.54 6.96 1.19 1.35.8 3.25 1.77 4.29 2.14C32.9 98.28 63.8 96 88.84 87.72c9.82-3.25 14.4-5.42 26.46-12.57 4.87-2.88 8.94-5.26 9.02-5.31.11-.06 1.83 1.45 3.84 3.36 3.94 3.73 5.53 4.92 8.44 6.37 8.04 4.05 18.44 4.29 26.25.61 6.03-2.83 11.8-7.57 15-12.25 4.2-6.24 6.03-15.8 5.21-27.3-.6-8.26-1.53-10.22-8.23-17.02-6.37-6.5-7.96-7.32-14.28-7.32-7.1 0-16.14 1.21-20.96 2.83-4.95 1.64-9.4 4.79-13.84 9.84-5.24 5.93-5.82 8.36-5.53 22.65.35 15.85.16 16.22-11.5 23.54-15.4 9.66-23.74 12.6-44.38 15.62-11.24 1.6-21.77 2.32-29.2 1.95-12.81-.66-20.27-4.3-27.66-13.6-4.94-6.19-5.26-8.78-1.74-13.97 1.5-2.25 1.7-2.4 2.8-2.48a15.1 15.1 0 002.49-.5 6 6 0 013.33-.2c2.41.43 4.45 1.54 6.11 3.34 1.6 1.7 2.2 2.83 3.55 6.38.8 2.12.93 2.27 1.24 1.85.43-.58.27-3.41-.31-5.53-.82-2.94-3.76-6.3-6.88-7.86-2.15-1.06-3.31-1.98-3.31-2.59 0-.74 1.4-1.77 4.6-3.3a94.98 94.98 0 0119.21-7.05c3.97-1 5.58-1.27 11.78-1.8 1.61-.15 3.8-.5 4.94-.79 10.64-2.75 21.46-11.06 25.62-19.7A19.32 19.32 0 0083 17.25c.2-2.22.4-2.8 1.08-3.91 1.88-2.91 6.56-5.19 13.7-6.7 8.79-1.85 22.6-2.8 40.83-2.8 17.75 0 22.8.87 32.39 5.69 14.52 7.27 24.15 15.24 31.11 25.77 5.64 8.47 8.92 17.67 10.48 29.31.63 4.8.63 17.33-.03 22.18-2.04 15.13-7.99 26.61-21.83 42.2-14.1 15.87-21.93 26-28.47 36.9-7.72 12.9-11.9 24.72-13.62 38.5-.16 1.25-.37 6.27-.45 11.2l-.16 8.91h-32.91c-21.88 0-32.87-.08-32.76-.26zM55.2 82.38c.45-.45.4-3.07-.1-5.21-.72-3.26-2.31-4.98-5.56-6.17-2.23-.8-7.1-.98-9.71-.34-5.67 1.37-8.58 4.65-7.3 8.3l.28.83 1.3-1.83c.69-1 1.77-2.25 2.4-2.75 3.66-3.02 9.82-3.04 13.1-.06 1.04.9 1.57 1.7 2.33 3.5 1.56 3.54 2.44 4.55 3.26 3.73z"/><path d="M147.98 79.9c-5.27-.78-10.08-2.76-13.66-5.62-5.82-4.63-8.96-10.03-10.9-18.57-.45-2.07-.55-3.34-.55-7.15 0-4.15.08-4.9.71-7.27 2.78-10.37 10.72-17.57 22.7-20.61 4-1.03 10.88-1.8 14.9-1.7 3.12.08 3.62.16 5.03.8 2.46 1.16 7.67 6.85 10.42 11.35a30 30 0 013.34 24.05c-3.1 10.8-13.76 21.46-24.13 24.1-1.96.5-6.3.85-7.86.61zm9.6-15.86c3.02-.6 5.74-2.06 6.85-3.65 3.63-5.32 2.97-17.75-1.21-23.15-1.09-1.4-4.16-3.44-6.09-4.05a15.36 15.36 0 00-7.17-.24 16.5 16.5 0 00-8.39 5.64c-3.62 4.9-4.36 9.92-2.32 15.95 2.2 6.6 3.91 8.47 8.7 9.5 2.22.48 7.14.48 9.63 0zM44.92 42.5a10.17 10.17 0 01-4.42-2.48c-2.48-2.28-3.52-5.4-3.52-10.56 0-4.63.9-8.41 2.89-12.25 2.49-4.79 9.07-9.63 15-11a24.7 24.7 0 0110.95.29c6.06 1.74 11.57 5.08 13.55 8.17.98 1.56 1.03 3.94.13 6.11-.6 1.43-2.56 4.58-3.1 4.9-.63.4-1.26-.24-2.1-2.01-1.04-2.23-2.15-3.15-4.75-3.95-4.68-1.45-11.27-1.05-15.8.93-1.82.8-3.85 2.73-4.73 4.45-1.19 2.43-.79 5.76 1.35 11.3a17.11 17.11 0 011.09 4.12c.13 1.48.08 1.67-.48 2.06-.85.59-4.13.56-6.06-.07z"/></g><g fill="#4d771e"><path d="M82.39 224.12c.13-.32-.1-.4-1.11-.43-2.2-.02-3.42-.34-3.4-.84.06-.67 4.59-8.6 10.65-18.71 9.02-15.06 13.2-23.2 15-29.37 1.32-4.47 2.7-7.14 3.73-7.14 1.85 0 6.53-16.8 9.36-33.55 1.12-6.64 1.6-11.04 1.6-14.74.02-6.93.7-9.92 2.8-11.75 1.13-1 1.9-1.35 7.43-3.54 5.1-2.04 6.72-3.34 3.9-3.15-2.84.18-12.37 2.43-21.02 4.95-14.95 4.3-25.16 6.3-37.67 7.27-4.42.35-14.74.35-19.1 0-14.82-1.19-27.7-5.26-36.63-11.59-4.68-3.3-9.92-9.07-10.45-11.45-.53-2.38 2.36-2.01 7.1.92 5.4 3.36 13.4 4.92 25.24 4.92 15.55 0 33.6-2.99 49.29-8.17 10.03-3.33 13.54-5 26.24-12.49 4.9-2.91 9-5.26 9.08-5.26.1 0 1.7 1.42 3.57 3.17 4 3.78 5.45 4.9 8.18 6.32 4.68 2.44 8.46 3.28 14.58 3.28 4.18 0 4.89-.05 7.25-.68a34.97 34.97 0 0010.2-4.9c9.06-5.98 13.29-12.83 14.72-23.73.34-2.46.4-4.58.29-9.53-.26-11.08-1.14-13.28-8.52-20.66-4.13-4.18-6.4-5.9-8.7-6.61-2.15-.67-5.93-.75-11.28-.27-14.44 1.3-19.5 3.12-26.14 9.53-4.79 4.6-6.85 7.56-7.85 11.27-.43 1.48-.5 3.41-.67 14.28-.1 7.89-.29 12.89-.47 13.42-1 3.04-2.65 4.79-7.3 7.86-15.14 9.92-24.16 13.73-38.8 16.4-13.51 2.46-27.54 3.81-36.64 3.52-8.04-.26-12.64-1.24-17.72-3.76a30.04 30.04 0 01-9.6-7.56C4.35 75.5 2.98 72.69 3.8 69.57a19.62 19.62 0 013.36-6.27c.74-.8.74-.8 1.24-.29.26.27.8 1.24 1.14 2.14 1.35 3.34 4.39 6.99 7.35 8.73 1.75 1.06 4.6 1.8 5.9 1.57a3.92 3.92 0 002.83-2.46c.67-2.04-.2-5.43-2.14-8.29a14.32 14.32 0 00-5.56-4.73c-2.43-1.27-3.33-2.15-2.96-2.86.4-.74 2.65-1.98 7.46-4.15 9.53-4.26 20.61-7.3 26.8-7.3 3.23 0 8.66-1.43 13-3.45 11.27-5.16 20.8-16.37 20.8-24.47 0-5.13 3.75-8.23 12.67-10.48 7.3-1.85 17.8-2.83 33.76-3.12 17.88-.34 26.85.13 32.36 1.72 5.55 1.61 13.28 5.48 20.55 10.3 16.12 10.68 25.4 24.28 29.1 42.6 1.07 5.2 1.46 9.73 1.46 16.69 0 6.82-.24 10.05-1.06 14.92-2.24 13.15-8.7 24.76-21.96 39.42-24.95 27.6-36.93 48.08-40.61 69.24-.87 5.14-1.19 9.69-1.19 17.62v7.86h-32.94c-29.16 0-32.92-.05-32.78-.4zm-28.52-141c1.9-.61 2.27-1.24 2.03-3.5-.53-5-2.48-7.53-6.88-8.91-1.56-.48-2.43-.58-5.55-.56-4.05.03-6.4.45-8.55 1.54-1.48.74-2.01 1.3-2.57 2.62-.74 1.77-.37 4.73.75 5.95 1.19 1.3 3.67 2.28 7.72 3 3.44.63 10.88.55 13.05-.14z"/><path d="M148.64 79.92c-.21-.06-1.3-.24-2.38-.4a27 27 0 01-16.27-9.55 25.15 25.15 0 01-4.93-8.68c-1.77-5.05-2.22-7.73-2.2-12.86.03-4.02.11-4.79.75-7.12 2.88-10.63 11.03-17.88 23.39-20.77 6.11-1.42 15.19-2.03 17.96-1.21 2.65.8 6.25 4.2 10.27 9.79a30.04 30.04 0 011.43 33.5 45.23 45.23 0 01-10.7 11.64c-2.64 1.98-7.3 4.3-9.94 4.97-1.9.48-6.48.9-7.38.69zm8.78-15.85c3.68-.72 6.09-2.04 7.25-4.02 3.18-5.4 2.73-16.6-.87-21.99-.53-.8-1.56-1.93-2.3-2.54-7.04-5.58-17.36-2.83-21.62 5.77-2.43 4.92-2.38 9.15.21 15.74 1.27 3.28 2.46 4.9 4.24 5.77 1.42.71 3.04 1.22 4.57 1.45 1.67.27 6.75.16 8.52-.18zM44.92 42.53a10.43 10.43 0 01-4.42-2.51c-2.38-2.2-3.52-5.58-3.52-10.5 0-6.91 2.33-13.05 6.35-16.78 3.26-2.99 6.8-5.1 10.59-6.3 1.72-.53 2.49-.6 5.95-.58 3.55 0 4.23.08 6.35.74 6.3 1.9 12.28 5.8 13.52 8.76.48 1.19.48 3.47-.03 4.92-.55 1.56-2.7 4.95-3.36 5.3-.71.36-1.16-.09-2.2-2.23a5.28 5.28 0 00-2.06-2.49c-5.08-3.41-17.17-2.4-21.32 1.75-3.04 3.04-3.15 6.56-.42 13.78 1.1 2.97 1.42 5.16.84 5.96-.58.76-4.2.84-6.27.18z"/></g><g fill="#daae6b"><path d="M82.92 223.67c5.29-5.72 6.27-6.94 9.07-11.06 3.3-4.9 6.11-9.53 11.4-18.82 7.02-12.27 9.85-16.45 14-20.63 4.26-4.26 8.02-5.7 13.26-5.03 3.44.42 5.37 1.35 7.64 3.68 3.81 3.86 5.77 9.73 6.38 19.1.34 5.27.05 10.3-1.32 22.83-.58 5.35-1.06 9.95-1.06 10.24 0 .53-.24.53-30.08.53H82.12zM147.98 79.79a27.86 27.86 0 01-9-2.76c-8.23-3.94-13.52-11.4-15.66-22.01-.72-3.6-.64-9.79.16-13.07a25.16 25.16 0 017.4-12.96c5.64-5.48 12.04-8.18 22.76-9.53a45.9 45.9 0 017.8-.48c3 .11 3.31.16 4.85.96 2 1.03 4.44 3.44 7.56 7.46 3.58 4.57 5.48 8.44 6.6 13.28.84 3.68.79 9.45-.14 12.94-1.8 6.85-4.82 11.8-10.5 17.25-7.02 6.72-14.42 9.74-21.83 8.92zm11.7-16.25c2.77-.9 4.2-1.98 5.28-4 1.35-2.5 1.8-4.92 1.78-9.52-.03-4.55-.59-7.46-2.01-10.43-1.7-3.57-5.56-6.3-9.74-6.93-7.14-1.1-14.92 4.71-16.54 12.36-.76 3.68-.2 7.7 1.72 12.33 2.38 5.74 5.08 7.17 13.23 6.98 3.57-.08 4.37-.16 6.27-.79zM45.3 42.64c-1.8-.58-4.32-2.04-5.27-3.1-2.04-2.25-3.05-5.6-3.05-10.13 0-5.95 2.04-12.01 5.27-15.59 2.65-2.96 8.44-6.5 12.2-7.51 2.35-.63 8.2-.63 10.5 0 6.48 1.75 12.41 5.21 14.32 8.39 1.42 2.43 1.1 5.08-1.09 8.5-.5.78-1.22 1.71-1.61 2.05-.59.56-.74.59-1.11.27a6.37 6.37 0 01-1.09-1.83c-.8-1.8-1.45-2.51-3.02-3.3-2.22-1.14-4.3-1.54-8.17-1.54-7.65 0-12.75 2.4-14.42 6.8-.82 2.14-.48 4.84 1.27 9.95 1.72 4.97 1.85 6.03.82 6.85-.58.45-1.06.56-2.6.53-1.03 0-2.35-.16-2.96-.34z"/></g><g fill="#efe3af"><path d="M82.5 224.4c0-.05 1.42-1.66 3.14-3.6 5.4-5.97 8.5-10.63 17.68-26.71 10.37-18.16 15.18-23.87 21.53-25.54 1.88-.5 5.82-.5 7.78 0 6.11 1.62 10.08 7.68 11.56 17.78.22 1.46.35 4.9.35 9.21-.03 6.24-.13 7.83-1.14 17.33a561.3 561.3 0 01-1.27 11.06l-.1.58h-29.77c-16.38 0-29.77-.05-29.77-.1zm51.8-3.38c-.21-.6-4.02-2.33-6.59-2.99a167.9 167.9 0 00-15.85-2.65c-4.76-.55-10.93-.66-11.4-.2-1.25 1.24 14.44 4.44 28.6 5.87 3.6.34 5.34.34 5.24-.03zm2.38-13.41c.26-.16.16-.38-.45-.9-3.44-2.89-10.3-3.73-25.43-3.13l-4.1.16 6.48 1c19.1 2.94 22.7 3.4 23.5 2.87zm5.87-13.74c0-.5-1.69-1.95-2.83-2.46-5.32-2.27-20.53-4.2-22.57-2.88-1.16.77 3.18 2.6 8.87 3.7 5.92 1.14 16.53 2.23 16.53 1.64zM145.6 79.36c-3.76-.9-7.3-2.38-9.93-4.15a40.92 40.92 0 01-6.9-6.83c-4.08-5.5-6.64-15.48-5.82-22.73 1.43-12.8 9.84-21.59 23.92-25 3.91-.95 11.43-1.8 14.73-1.67 4.5.19 6.25 1.27 10.93 6.83 6.46 7.62 9.1 15.1 8.36 23.57-.69 8.13-4.39 15.22-11.43 21.8-6.19 5.85-12.43 8.63-19.2 8.58-1.7 0-3.8-.19-4.66-.4zm12.43-15.32c2.49-.53 4.92-1.77 6.09-3.1 1.95-2.3 2.93-6.58 2.7-11.98-.27-6.03-1.8-10.24-4.69-12.91-5.34-4.97-13.2-4.68-18.89.63a16.21 16.21 0 00-4.34 6.54c-.6 1.56-.69 2.17-.69 5.21 0 3.28.03 3.57.98 6.35 1.27 3.81 2.7 6.38 4.1 7.46 2.86 2.17 9.1 2.94 14.74 1.8zM45.48 42.61c-2.07-.58-4.4-1.9-5.48-3.12-4.97-5.5-3.52-19.71 2.65-25.96 5.82-5.87 13.01-8.6 20-7.59 5.45.82 12.17 3.97 15.4 7.22 2.38 2.44 2.67 4.98.92 8.47-1.13 2.28-2.4 3.92-3.1 3.92-.52 0-1.08-.75-1.6-2.23-.5-1.43-2.33-2.93-4.3-3.57-6.69-2.2-16.16-.69-19.54 3.12-2.86 3.23-2.91 6.22-.19 13.47 1.98 5.32 1.72 6.46-1.56 6.59-.98.05-2.4-.1-3.2-.32z"/></g><g fill="#fffffe"><path d="M146.13 79.41a31.9 31.9 0 01-10.67-4.44c-1.9-1.27-5.87-5.4-7.33-7.62-1.58-2.4-3.07-5.98-4.15-10.05-.71-2.68-.82-3.6-.93-7.55-.16-5.13.27-7.83 1.78-11.72 2.22-5.76 7.46-11.3 13.62-14.39 4.82-2.43 12.65-4.15 21.04-4.6 6-.35 8.2.87 13.54 7.43 3.26 4.02 4.82 6.7 6.25 10.77 3.3 9.31 1.64 19.6-4.53 28-4.84 6.6-11.64 11.74-18.1 13.65a26.72 26.72 0 01-10.52.52zm12.62-15.47c2.48-.64 3.38-1.09 4.84-2.44 2.38-2.2 3.46-6.27 3.23-12.4-.22-6.17-1.38-9.66-4.16-12.55a12.3 12.3 0 00-10.03-4.05c-6.13.35-11.08 4.13-13.67 10.38-.72 1.74-.77 2.09-.77 5.55 0 3.6.02 3.79 1 6.62 2.28 6.61 4.29 8.49 9.85 9.39 2.38.37 7.35.1 9.7-.5zM45.72 42.58a13.04 13.04 0 01-5.35-2.83c-1.98-1.93-3.36-6.06-3.39-10.24 0-4.04 1.46-9.6 3.44-12.96 2.5-4.26 8.95-8.81 14.42-10.19 2.84-.74 7.25-.63 10.53.24 5.06 1.3 9.53 3.65 12.36 6.51 2.46 2.43 2.86 4.02 1.85 7.04-.71 2.09-2.85 5.24-3.62 5.34-.5.08-.74-.2-1.56-1.9-.96-2.01-1.46-2.54-3.42-3.55-3.91-1.96-12.51-1.74-17.2.43-3.12 1.48-5.26 4.12-5.6 6.9-.22 1.75.5 4.98 1.88 8.7 1.85 5 1.85 6.14-.06 6.67-1.3.35-2.51.32-4.28-.16z"/></g></svg>